<?xml version="1.0" encoding="UTF-8"?>
<svg width="16px" height="16px" viewBox="0 0 16 16" version="1.1" xmlns="http://www.w3.org/2000/svg" xmlns:xlink="http://www.w3.org/1999/xlink">
    <title>delete</title>
    <g id="Page-1" stroke="none" stroke-width="1" fill="none" fill-rule="evenodd">
        <g id="Artboard" transform="translate(-424.000000, -355.000000)">
            <g id="delete" transform="translate(424.000000, 355.000000)">
                <rect id="Rectangle-Copy-9" x="0" y="0" width="16" height="16"></rect>
                <path d="M9.17598043,0 C9.99117319,0 10.6498296,0.646539069 10.7169037,1.45874917 L10.7225305,1.59556905 L10.722,2.401 L14.8295274,2.40193191 L14.8295274,3.53427123 L14.041,3.534 L12.8501069,16 L3.61992034,16 L2.299,3.534 L1.5,3.53427123 L1.5,2.40193191 L6.158,2.401 L6.15885984,1.59556905 C6.15885984,0.766435225 6.77461134,0.0762575332 7.57106843,0.00590401949 L7.70540988,0 L9.17598043,0 Z M12.903,3.534 L3.438,3.534 L4.63846717,14.8676154 L11.8203294,14.8676154 L12.903,3.534 Z M6.50009302,6.07460979 L7.07088904,12.4525331 L5.94305737,12.5534691 L5.37226135,6.17554576 L6.50009302,6.07460979 Z M10.0606549,6.07460979 L11.1884866,6.17554576 L10.6176906,12.5534691 L9.4898589,12.4525331 L10.0606549,6.07460979 Z M9.17598043,1.13233933 L7.70540988,1.13233933 C7.50770586,1.13233933 7.33419806,1.29145706 7.29808156,1.51071961 L7.29119917,1.59556905 L7.291,2.401 L9.59,2.401 L9.59019114,1.59556905 C9.59019114,1.36281674 9.43865045,1.17783765 9.24876416,1.13960466 L9.17598043,1.13233933 Z" id="Shape" fill="#000000" fill-rule="nonzero"></path>
            </g>
        </g>
    </g>
</svg>